<svg xmlns="http://www.w3.org/2000/svg" version="1.1" xmlns:xlink="http://www.w3.org/1999/xlink" xmlns:svgjs="http://svgjs.dev/svgjs" width="1920" height="1080" preserveAspectRatio="none" viewBox="0 0 1920 1080"><g mask="url(&quot;#SvgjsMask1264&quot;)" fill="none"><rect width="1920" height="1080" x="0" y="0" fill="url(&quot;#SvgjsLinearGradient1265&quot;)"></rect><path d="M 0,301 C 128,262.6 384,87.2 640,109 C 896,130.8 1024,378.8 1280,410 C 1536,441.2 1792,294 1920,265L1920 1080L0 1080z" fill="rgba(157, 17, 108, 1)"></path><path d="M 0,623 C 96,678 288,862.8 480,898 C 672,933.2 768,790.6 960,799 C 1152,807.4 1248,945.2 1440,940 C 1632,934.8 1824,806.4 1920,773L1920 1080L0 1080z" fill="rgba(231, 57, 37, 1)"></path></g><defs><mask id="SvgjsMask1264"><rect width="1920" height="1080" fill="#ffffff"></rect></mask><linearGradient x1="89.06%" y1="119.44%" x2="10.94%" y2="-19.44%" gradientUnits="userSpaceOnUse" id="SvgjsLinearGradient1265"><stop stop-color="rgba(15, 56, 98, 1)" offset="0.33"></stop><stop stop-color="rgba(32, 0, 158, 1)" offset="1"></stop></linearGradient></defs></svg>
