<svg id="visual" viewBox="0 0 3840 2160" width="3840" height="2160" xmlns="http://www.w3.org/2000/svg" xmlns:xlink="http://www.w3.org/1999/xlink" version="1.1"><rect x="0" y="0" width="3840" height="2160" fill="#2c299a"></rect><path d="M0 1120L80 1062.3C160 1004.7 320 889.3 480 909.7C640 930 800 1086 960 1162.5C1120 1239 1280 1236 1440 1240.3C1600 1244.7 1760 1256.3 1920 1262.2C2080 1268 2240 1268 2400 1257.5C2560 1247 2720 1226 2880 1190.5C3040 1155 3200 1105 3360 1081C3520 1057 3680 1059 3760 1060L3840 1061L3840 2161L3760 2161C3680 2161 3520 2161 3360 2161C3200 2161 3040 2161 2880 2161C2720 2161 2560 2161 2400 2161C2240 2161 2080 2161 1920 2161C1760 2161 1600 2161 1440 2161C1280 2161 1120 2161 960 2161C800 2161 640 2161 480 2161C320 2161 160 2161 80 2161L0 2161Z" fill="#9d116c"></path><path d="M0 1379L80 1457.3C160 1535.7 320 1692.3 480 1697.8C640 1703.3 800 1557.7 960 1484.3C1120 1411 1280 1410 1440 1441.7C1600 1473.3 1760 1537.7 1920 1582.3C2080 1627 2240 1652 2400 1625.3C2560 1598.7 2720 1520.3 2880 1457.2C3040 1394 3200 1346 3360 1358.8C3520 1371.7 3680 1445.3 3760 1482.2L3840 1519L3840 2161L3760 2161C3680 2161 3520 2161 3360 2161C3200 2161 3040 2161 2880 2161C2720 2161 2560 2161 2400 2161C2240 2161 2080 2161 1920 2161C1760 2161 1600 2161 1440 2161C1280 2161 1120 2161 960 2161C800 2161 640 2161 480 2161C320 2161 160 2161 80 2161L0 2161Z" fill="#e73925"></path></svg>